<?xml version="1.0" standalone="no"?><!DOCTYPE svg PUBLIC "-//W3C//DTD SVG 1.1//EN" "http://www.w3.org/Graphics/SVG/1.1/DTD/svg11.dtd"><svg t="1586916587271" class="icon" viewBox="0 0 1024 1024" version="1.1" xmlns="http://www.w3.org/2000/svg" p-id="976" xmlns:xlink="http://www.w3.org/1999/xlink" width="200" height="200"><defs><style type="text/css"></style></defs><path d="M834.523429 142.189714A29.257143 29.257143 0 0 1 871.497143 179.2L612.937143 954.989714a29.257143 29.257143 0 0 1-48.457143 11.446857l-210.761143-210.761142a29.257143 29.257143 0 0 1-8.557714-21.833143l2.669714-67.949715-67.949714 2.633143a29.257143 29.257143 0 0 1-19.565714-6.509714l-2.267429-2.048-210.761143-210.724571a29.257143 29.257143 0 0 1 11.446857-48.457143z m-96.292572 93.769143L122.148571 441.344l168.228572 168.228571 77.312-3.072L738.230857 235.958857z m37.668572 45.092572L407.003429 649.910857l-2.852572 73.435429 168.228572 168.228571 203.52-610.523428z" p-id="977"></path></svg>